# xmcd
#
# Track frame offsets:
#	150
#	13862
#	24020
#	34931
#	46360
#	57434
#	69938
#	80839
#	92285
#	105362
#	115854
#	127117
#	139897
#	152494
#	163519
#
# Disc length: 2335 seconds
#
# Revision: 3
# Processed by: cddbd v1.5.2PL0 Copyright (c) Steve Scherf et al.
# Submitted via: audiograbber 1.83.01
#
DISCID=b9091d0f
DTITLE=Roy Orbison - The Collection
DYEAR=2003
DGENRE=Pop
TTITLE0=Oh Pretty Woman (1964)
TTITLE1=Running Scared (1961)
TTITLE2=Falling (1960)
TTITLE3=Love Hurts (1960)
TTITLE4=Mean Woman Blues (1963)
TTITLE5=I Can't Stop Loving You (1960)
TTITLE6=The Crowd (1962)
TTITLE7=Blue Bayou (1963)
TTITLE8=Borne On The Wind (1964)
TTITLE9=Lana (1961)
TTITLE10=Only The Lonely (Know The Way I Feel) (1960)
TTITLE11=It's Over (1964)
TTITLE12=Pretty Paper (1963)
TTITLE13=All I Have To Do Is Dream (1960)
TTITLE14=Dream Baby (How Long Must I Dream) (1962)
EXTD=Track dates provided.\nAll original MONUMENT recordings (not 80s re-record
EXTD=s).
EXTT0=
EXTT1=
EXTT2=
EXTT3=
EXTT4=
EXTT5=
EXTT6=
EXTT7=
EXTT8=
EXTT9=
EXTT10=
EXTT11=
EXTT12=
EXTT13=
EXTT14=
PLAYORDER=
